<?xml version="1.0" encoding="utf-8"?>
<!-- Generator: Adobe Illustrator 25.4.1, SVG Export Plug-In . SVG Version: 6.00 Build 0)  -->
<svg version="1.1" id="Warstwa_1" xmlns="http://www.w3.org/2000/svg" xmlns:xlink="http://www.w3.org/1999/xlink" x="0px" y="0px"
	 viewBox="0 0 73.1 73.2" style="enable-background:new 0 0 73.1 73.2;" xml:space="preserve">
<style type="text/css">
	.st0{fill:url(#SVGID_1_);}
</style>
<g>
	
		<linearGradient id="SVGID_1_" gradientUnits="userSpaceOnUse" x1="-0.1765" y1="32.9042" x2="70.7529" y2="40.6276" gradientTransform="matrix(1 0 0 -1 0 73.8898)">
		<stop  offset="0" style="stop-color:#E5252C"/>
		<stop  offset="1" style="stop-color:#E51036"/>
	</linearGradient>
	<path class="st0" d="M61.1,14c-4.5-2.1-9.4-3.6-14.5-4.5c-0.1,0-0.2,0-0.2,0.1c-0.6,1.1-1.3,2.6-1.8,3.7c-5.5-0.8-10.9-0.8-16.2,0
		c-0.5-1.2-1.2-2.6-1.8-3.7c0-0.1-0.1-0.1-0.2-0.1c-5.1,0.9-9.9,2.4-14.5,4.5c0,0-0.1,0-0.1,0.1C2.6,27.9,0.1,41.3,1.3,54.5
		c0,0.1,0,0.1,0.1,0.2c6.1,4.5,12,7.2,17.7,9c0.1,0,0.2,0,0.2-0.1c1.4-1.9,2.6-3.8,3.6-5.9c0.1-0.1,0-0.3-0.1-0.3
		c-1.9-0.7-3.8-1.6-5.5-2.6c-0.1-0.1-0.2-0.3,0-0.4c0.4-0.3,0.7-0.6,1.1-0.9c0.1-0.1,0.2-0.1,0.2,0c11.6,5.3,24.2,5.3,35.7,0
		c0.1,0,0.2,0,0.2,0c0.4,0.3,0.7,0.6,1.1,0.9c0.1,0.1,0.1,0.3,0,0.4c-1.8,1-3.6,1.9-5.5,2.6c-0.1,0-0.2,0.2-0.1,0.3
		c1.1,2.1,2.3,4,3.6,5.9c0.1,0.1,0.2,0.1,0.2,0.1c5.8-1.8,11.7-4.5,17.8-9c0.1,0,0.1-0.1,0.1-0.2C73.2,39.2,69.3,25.9,61.1,14
		C61.2,14.1,61.2,14,61.1,14z M24.8,46.5c-3.5,0-6.4-3.2-6.4-7.2s2.8-7.2,6.4-7.2s6.4,3.2,6.4,7.2C31.1,43.2,28.3,46.5,24.8,46.5z
		 M48.4,46.5c-3.5,0-6.4-3.2-6.4-7.2s2.8-7.2,6.4-7.2c3.6,0,6.4,3.2,6.4,7.2C54.7,43.2,51.9,46.5,48.4,46.5z"/>
</g>
</svg>
