<svg id="Warstwa_1" data-name="Warstwa 1" xmlns="http://www.w3.org/2000/svg" viewBox="0 0 73.1 73.1"><defs><style>.cls-1{fill:#1b1b1b;}.cls-2{fill:none;}</style></defs><path class="cls-1" d="M61.1,14A58.28,58.28,0,0,0,46.6,9.5c-.1,0-.2,0-.2.1-.6,1.1-1.3,2.6-1.8,3.7a55,55,0,0,0-16.2,0c-.5-1.2-1.2-2.6-1.8-3.7,0-.1-.1-.1-.2-.1A59.6,59.6,0,0,0,11.9,14a.1.1,0,0,0-.1.1C2.6,27.9.1,41.3,1.3,54.5c0,.1,0,.1.1.2a59.27,59.27,0,0,0,17.7,9c.1,0,.2,0,.2-.1a35.82,35.82,0,0,0,3.6-5.9.19.19,0,0,0-.1-.3,34.65,34.65,0,0,1-5.5-2.6c-.1-.1-.2-.3,0-.4.4-.3.7-.6,1.1-.9.1-.1.2-.1.2,0a42.07,42.07,0,0,0,35.7,0h.2c.4.3.7.6,1.1.9a.3.3,0,0,1,0,.4,39.35,39.35,0,0,1-5.5,2.6.19.19,0,0,0-.1.3,58,58,0,0,0,3.6,5.9.31.31,0,0,0,.2.1,58.56,58.56,0,0,0,17.8-9c.1,0,.1-.1.1-.2A58.93,58.93,0,0,0,61.1,14C61.2,14.1,61.2,14,61.1,14ZM24.8,46.5c-3.5,0-6.4-3.2-6.4-7.2s2.8-7.2,6.4-7.2,6.4,3.2,6.4,7.2S28.3,46.5,24.8,46.5Zm23.6,0c-3.5,0-6.4-3.2-6.4-7.2s2.8-7.2,6.4-7.2,6.4,3.2,6.4,7.2S51.9,46.5,48.4,46.5Z"/><rect class="cls-2" width="73.1" height="73.1"/></svg>