<?xml version="1.0" encoding="utf-8"?>
<!-- Generator: Adobe Illustrator 25.4.1, SVG Export Plug-In . SVG Version: 6.00 Build 0)  -->
<svg version="1.1" id="Warstwa_1" xmlns="http://www.w3.org/2000/svg" xmlns:xlink="http://www.w3.org/1999/xlink" x="0px" y="0px"
	 viewBox="0 0 1344.6 85.2" style="enable-background:new 0 0 1344.6 85.2;" xml:space="preserve">
<style type="text/css">
	.st0{fill:url(#SVGID_1_);}
	.st1{fill:url(#SVGID_00000081639521772286059820000008305682952394027156_);}
	.st2{fill:url(#SVGID_00000173124235704952719780000005943120069781693621_);}
	.st3{fill:url(#SVGID_00000093138730030613627080000008254019518456339610_);}
	.st4{fill:url(#SVGID_00000129168978382869114800000013242301798598674847_);}
	.st5{fill:url(#SVGID_00000034797154170547960820000009071913439094998677_);}
	.st6{fill:url(#SVGID_00000060714965739447937550000015429142291129461125_);}
	.st7{fill:url(#SVGID_00000137112632979806866810000014078167508501726361_);}
	.st8{fill:url(#SVGID_00000085955741799122034300000008761098290659756218_);}
	.st9{fill:url(#SVGID_00000085934094396685790990000016912416530338258622_);}
	.st10{fill:url(#SVGID_00000090258821226260896190000005708277138737187244_);}
	.st11{fill:url(#SVGID_00000030451460952163556940000004000851657231592065_);}
	.st12{fill:url(#SVGID_00000001659788073707346090000013908573151241692072_);}
	.st13{fill:url(#SVGID_00000006676800716337918510000016733004894722341257_);}
	.st14{fill:url(#SVGID_00000101810100588627246170000007888844154562577332_);}
	.st15{fill:url(#SVGID_00000180360914328074684260000008084456395980694180_);}
</style>
<linearGradient id="SVGID_1_" gradientUnits="userSpaceOnUse" x1="1.7889" y1="44.2908" x2="1383.2695" y2="-106.1371">
	<stop  offset="0" style="stop-color:#FF001A"/>
	<stop  offset="1" style="stop-color:#E90034"/>
</linearGradient>
<polygon class="st0" points="35,10.1 45,0.1 10,0.1 0,0.1 0,85.1 10,85.1 35,85.1 45,75.1 10,75.1 10,45.1 21,45.1 31,35.1 10,35.1 
	10,10.1 "/>
<linearGradient id="SVGID_00000164495916731064826730000012344855021102524324_" gradientUnits="userSpaceOnUse" x1="2.8735" y1="54.2521" x2="1384.3541" y2="-96.1758">
	<stop  offset="0" style="stop-color:#FF001A"/>
	<stop  offset="1" style="stop-color:#E90034"/>
</linearGradient>
<polygon style="fill:url(#SVGID_00000164495916731064826730000012344855021102524324_);" points="135,60 85,10 75,0 75,14.1 75,85 
	85,75 85,25.1 135,75.2 145,85.2 145,84.2 145,70 145,0.2 135,0.2 "/>
<linearGradient id="SVGID_00000142145869052660622070000000337791287959711389_" gradientUnits="userSpaceOnUse" x1="15.6713" y1="171.7826" x2="1397.152" y2="21.3547">
	<stop  offset="0" style="stop-color:#FF001A"/>
	<stop  offset="1" style="stop-color:#E90034"/>
</linearGradient>
<path style="fill:url(#SVGID_00000142145869052660622070000000337791287959711389_);" d="M1222.1,5.2c-6-3.2-12.7-5-20-5
	c-23.4,0-42.4,19-42.4,42.4s19,42.4,42.4,42.4c7.5,0,14.6-2,20.7-5.4c12.9-7.3,21.7-21.1,21.7-37
	C1244.5,26.4,1235.4,12.4,1222.1,5.2z M1212.2,73.4c-3.2,1-6.5,1.6-10,1.6c-17.8,0-32.4-14.5-32.4-32.4c0-17.8,14.5-32.4,32.4-32.4
	c3.1,0,6.2,0.5,9,1.3c13.5,3.9,23.3,16.4,23.3,31.1C1234.5,56.9,1225.1,69.1,1212.2,73.4z"/>
<linearGradient id="SVGID_00000095331297140677987360000017362850926787953340_" gradientUnits="userSpaceOnUse" x1="14.5806" y1="161.766" x2="1396.0613" y2="11.3381">
	<stop  offset="0" style="stop-color:#FF001A"/>
	<stop  offset="1" style="stop-color:#E90034"/>
</linearGradient>
<path style="fill:url(#SVGID_00000095331297140677987360000017362850926787953340_);" d="M1109.1,75c-17.9,0-32.4-14.5-32.4-32.4
	c0-17.8,14.5-32.4,32.4-32.4c3.1,0,6.2,0.5,9,1.3l10.9-6.3c-5.9-3.2-12.7-5-19.9-5c-23.4,0-42.4,19-42.4,42.4s19,42.4,42.4,42.4
	c7.5,0,14.6-2,20.7-5.4l-10.7-6.2C1115.9,74.4,1112.6,75,1109.1,75z"/>
<linearGradient id="SVGID_00000106106289628831179710000012975554723605617812_" gradientUnits="userSpaceOnUse" x1="4.1325" y1="65.8135" x2="1385.613" y2="-84.6144">
	<stop  offset="0" style="stop-color:#FF001A"/>
	<stop  offset="1" style="stop-color:#E90034"/>
</linearGradient>
<path style="fill:url(#SVGID_00000106106289628831179710000012975554723605617812_);" d="M257.3,40.2h-7.6h-27.4l10,10h16.6
	C245.4,64.4,232.6,75,217.4,75C199.6,75,185,60.4,185,42.6c0-17.9,14.5-32.4,32.4-32.4c3.1,0,6.2,0.5,9,1.3l10.9-6.3
	c-5.9-3.2-12.7-5-19.9-5c-23.4,0-42.4,19-42.4,42.4S194,85,217.4,85c23.4,0,42.4-19,42.4-42.4c0-0.8,0-1.6-0.1-2.3H257.3z"/>
<linearGradient id="SVGID_00000132056765927425656150000009168922647606361011_" gradientUnits="userSpaceOnUse" x1="4.9795" y1="73.5927" x2="1386.4601" y2="-76.8352">
	<stop  offset="0" style="stop-color:#FF001A"/>
	<stop  offset="1" style="stop-color:#E90034"/>
</linearGradient>
<polygon style="fill:url(#SVGID_00000132056765927425656150000009168922647606361011_);" points="289.8,85.1 299.8,75.1 299.8,0.1 
	289.8,0.1 "/>
<linearGradient id="SVGID_00000143584637835873882070000002988256641657279387_" gradientUnits="userSpaceOnUse" x1="5.8591" y1="81.6702" x2="1387.3397" y2="-68.7576">
	<stop  offset="0" style="stop-color:#FF001A"/>
	<stop  offset="1" style="stop-color:#E90034"/>
</linearGradient>
<polygon style="fill:url(#SVGID_00000143584637835873882070000002988256641657279387_);" points="389.8,60 339.8,10 329.8,0 
	329.8,14.1 329.8,85 339.8,75 339.8,25.1 389.8,75.2 399.8,85.2 399.8,84.2 399.8,70 399.8,0.2 389.8,0.2 "/>
<linearGradient id="SVGID_00000037692476629152776640000006681252406056389798_" gradientUnits="userSpaceOnUse" x1="6.8225" y1="90.5181" x2="1388.3031" y2="-59.9098">
	<stop  offset="0" style="stop-color:#FF001A"/>
	<stop  offset="1" style="stop-color:#E90034"/>
</linearGradient>
<polygon style="fill:url(#SVGID_00000037692476629152776640000006681252406056389798_);" points="464.6,10.1 474.6,0.1 439.6,0.1 
	429.6,0.1 429.6,85.1 439.6,85.1 464.6,85.1 474.6,75.1 439.6,75.1 439.6,45.1 450.6,45.1 460.6,35.1 439.6,35.1 439.6,10.1 "/>
<linearGradient id="SVGID_00000000216534822004184550000016684155143736228008_" gradientUnits="userSpaceOnUse" x1="7.7139" y1="98.7042" x2="1389.1945" y2="-51.7237">
	<stop  offset="0" style="stop-color:#FF001A"/>
	<stop  offset="1" style="stop-color:#E90034"/>
</linearGradient>
<polygon style="fill:url(#SVGID_00000000216534822004184550000016684155143736228008_);" points="540.6,10.1 550.6,0.1 515.6,0.1 
	505.6,0.1 505.6,85.1 515.6,85.1 540.6,85.1 550.6,75.1 515.6,75.1 515.6,45.1 526.6,45.1 536.6,35.1 515.6,35.1 515.6,10.1 "/>
<linearGradient id="SVGID_00000049908057330049959380000009899370679428918410_" gradientUnits="userSpaceOnUse" x1="8.6388" y1="107.198" x2="1390.1194" y2="-43.2299">
	<stop  offset="0" style="stop-color:#FF001A"/>
	<stop  offset="1" style="stop-color:#E90034"/>
</linearGradient>
<path style="fill:url(#SVGID_00000049908057330049959380000009899370679428918410_);" d="M628.5,24.3c0-13.2-10.8-24-24-24
	c0,0-7.1,0-12.8,0V0.1h-10v85l10-10V48.3c0.7,0,1.5,0,2.2,0l28.6,36.8l7.8-6.2l-23.9-30.7C618.8,47.2,628.5,36.9,628.5,24.3z
	 M591.7,38.3v-28c5.7,0,12.8,0,12.8,0c7.7,0,14,6.3,14,14c0,7.7-6.3,14-14,14C604.5,38.3,597.6,38.3,591.7,38.3z"/>
<linearGradient id="SVGID_00000044150298981611205740000005914418445377045682_" gradientUnits="userSpaceOnUse" x1="9.5869" y1="115.9057" x2="1391.0675" y2="-34.5222">
	<stop  offset="0" style="stop-color:#FF001A"/>
	<stop  offset="1" style="stop-color:#E90034"/>
</linearGradient>
<polygon style="fill:url(#SVGID_00000044150298981611205740000005914418445377045682_);" points="705.4,0.2 661.4,0.2 661.4,10.2 
	699.6,10.2 661.4,75 661.4,85 704.4,85 714.4,75 672.4,75 716.4,0.2 "/>
<linearGradient id="SVGID_00000079454092592279559540000013031600368968062354_" gradientUnits="userSpaceOnUse" x1="10.4915" y1="124.2133" x2="1391.9722" y2="-26.2146">
	<stop  offset="0" style="stop-color:#FF001A"/>
	<stop  offset="1" style="stop-color:#E90034"/>
</linearGradient>
<path style="fill:url(#SVGID_00000079454092592279559540000013031600368968062354_);" d="M795.6,7.4c-7.6-4.8-16.4-7.2-25.4-7.2
	h-12.7V0.1h-10v84.8h10V85h12.6c9.5,0,19-2.6,26.9-8c11-7.5,18.1-19.2,18.1-34.3C815.1,27,807.5,14.9,795.6,7.4z M791.5,68.8
	c-6,4.2-13.3,6.2-20.7,6.2h-13.3V10.2h13.2c8,0,15.8,2.4,22.1,7.2c7.6,5.8,12.3,14.3,12.3,25.3C805.1,54.3,799.8,63,791.5,68.8z"/>
<linearGradient id="SVGID_00000143579887585523918460000011440752041928769447_" gradientUnits="userSpaceOnUse" x1="11.6921" y1="135.2388" x2="1393.1727" y2="-15.1891">
	<stop  offset="0" style="stop-color:#FF001A"/>
	<stop  offset="1" style="stop-color:#E90034"/>
</linearGradient>
<polygon style="fill:url(#SVGID_00000143579887585523918460000011440752041928769447_);" points="880.1,10.1 890.1,0.1 855.1,0.1 
	845.1,0.1 845.1,85.1 855.1,85.1 880.1,85.1 890.1,75.1 855.1,75.1 855.1,45.1 866.1,45.1 876.1,35.1 855.1,35.1 855.1,10.1 "/>
<linearGradient id="SVGID_00000145055587743966216830000006136455785411388590_" gradientUnits="userSpaceOnUse" x1="12.6051" y1="143.6236" x2="1394.0857" y2="-6.8043">
	<stop  offset="0" style="stop-color:#FF001A"/>
	<stop  offset="1" style="stop-color:#E90034"/>
</linearGradient>
<polygon style="fill:url(#SVGID_00000145055587743966216830000006136455785411388590_);" points="958.4,66.3 930.2,0.2 920.1,0.2 
	955.9,85 958.1,85 958.7,85 960.9,85 996.7,0.2 986.6,0.2 "/>
<linearGradient id="SVGID_00000124883951689321763330000009802063443772856233_" gradientUnits="userSpaceOnUse" x1="17.6998" y1="190.4112" x2="1399.1804" y2="39.9833">
	<stop  offset="0" style="stop-color:#FF001A"/>
	<stop  offset="1" style="stop-color:#E90034"/>
</linearGradient>
<path style="fill:url(#SVGID_00000124883951689321763330000009802063443772856233_);" d="M1031.7,75c-2.6,0-5.1,2.3-5,5
	c0.1,2.7,2.2,5,5,5c2.6,0,5.1-2.3,5-5C1036.6,77.3,1034.5,75,1031.7,75z"/>
<linearGradient id="SVGID_00000000181741823720369430000005469269891276605881_" gradientUnits="userSpaceOnUse" x1="16.8702" y1="182.7924" x2="1398.3507" y2="32.3645">
	<stop  offset="0" style="stop-color:#FF001A"/>
	<stop  offset="1" style="stop-color:#E90034"/>
</linearGradient>
<polygon style="fill:url(#SVGID_00000000181741823720369430000005469269891276605881_);" points="1309.5,35.1 1284.5,10.1 
	1274.5,0.1 1274.5,14.2 1274.5,85.1 1284.5,75.1 1284.5,25.2 1309.5,50.2 1334.6,25.2 1334.6,85.1 1344.6,75.1 1344.6,14.2 
	1344.6,0.1 1334.6,10.1 "/>
</svg>
