<svg id="Warstwa_1" data-name="Warstwa 1" xmlns="http://www.w3.org/2000/svg" viewBox="0 0 1344.6 85.2"><defs><style>.cls-1{fill:#1b1b1b;}</style></defs><polygon class="cls-1" points="35 10.1 45 0.1 10 0.1 0 0.1 0 85.1 10 85.1 35 85.1 45 75.1 10 75.1 10 45.1 21 45.1 31 35.1 10 35.1 10 10.1 35 10.1"/><polygon class="cls-1" points="135 60 85 10 75 0 75 14.1 75 85 85 75 85 25.1 135 75.2 145 85.2 145 84.2 145 70 145 0.2 135 0.2 135 60"/><path class="cls-1" d="M1222.1,5.2a42.41,42.41,0,1,0-20,79.8,42.41,42.41,0,0,0,20-79.8Zm-9.9,68.2a33.23,33.23,0,0,1-10,1.6,32.4,32.4,0,0,1,0-64.8,33.17,33.17,0,0,1,9,1.3,32.41,32.41,0,0,1,1,61.9Z" transform="translate(0 0)"/><path class="cls-1" d="M1109.1,75a32.4,32.4,0,1,1,0-64.8,33.17,33.17,0,0,1,9,1.3L1129,5.2a41.66,41.66,0,0,0-19.9-5,42.4,42.4,0,1,0,20.7,79.4l-10.7-6.2A33.23,33.23,0,0,1,1109.1,75Z" transform="translate(0 0)"/><path class="cls-1" d="M257.3,40.2h-35l10,10h16.6a32.4,32.4,0,1,1-31.5-40,33.17,33.17,0,0,1,9,1.3l10.9-6.3a41.66,41.66,0,0,0-19.9-5,42.4,42.4,0,1,0,42.4,42.4,17,17,0,0,0-.1-2.3h-2.4Z" transform="translate(0 0)"/><polygon class="cls-1" points="289.8 85.1 299.8 75.1 299.8 0.1 289.8 0.1 289.8 85.1"/><polygon class="cls-1" points="389.8 60 339.8 10 329.8 0 329.8 14.1 329.8 85 339.8 75 339.8 25.1 389.8 75.2 399.8 85.2 399.8 84.2 399.8 70 399.8 0.2 389.8 0.2 389.8 60"/><polygon class="cls-1" points="464.6 10.1 474.6 0.1 439.6 0.1 429.6 0.1 429.6 85.1 439.6 85.1 464.6 85.1 474.6 75.1 439.6 75.1 439.6 45.1 450.6 45.1 460.6 35.1 439.6 35.1 439.6 10.1 464.6 10.1"/><polygon class="cls-1" points="540.6 10.1 550.6 0.1 515.6 0.1 505.6 0.1 505.6 85.1 515.6 85.1 540.6 85.1 550.6 75.1 515.6 75.1 515.6 45.1 526.6 45.1 536.6 35.1 515.6 35.1 515.6 10.1 540.6 10.1"/><path class="cls-1" d="M628.5,24.3a24.07,24.07,0,0,0-24-24H591.7V.1h-10v85l10-10V48.3h2.2l28.6,36.8,7.8-6.2L606.4,48.2A24,24,0,0,0,628.5,24.3Zm-36.8,14v-28h12.8a14,14,0,0,1,0,28Z" transform="translate(0 0)"/><polygon class="cls-1" points="705.4 0.2 661.4 0.2 661.4 10.2 699.6 10.2 661.4 75 661.4 85 704.4 85 714.4 75 672.4 75 716.4 0.2 705.4 0.2"/><path class="cls-1" d="M795.6,7.4A47.41,47.41,0,0,0,770.2.2H757.5V.1h-10V84.9h10V85h12.6A47.67,47.67,0,0,0,797,77a40.22,40.22,0,0,0,18.1-34.3C815.1,27,807.5,14.9,795.6,7.4Zm-4.1,61.4A36,36,0,0,1,770.8,75H757.5V10.2h13.2a36.33,36.33,0,0,1,22.1,7.2c7.6,5.8,12.3,14.3,12.3,25.3A30.61,30.61,0,0,1,791.5,68.8Z" transform="translate(0 0)"/><polygon class="cls-1" points="880.1 10.1 890.1 0.1 855.1 0.1 845.1 0.1 845.1 85.1 855.1 85.1 880.1 85.1 890.1 75.1 855.1 75.1 855.1 45.1 866.1 45.1 876.1 35.1 855.1 35.1 855.1 10.1 880.1 10.1"/><polygon class="cls-1" points="958.4 66.3 930.2 0.2 920.1 0.2 955.9 85 958.1 85 958.7 85 960.9 85 996.7 0.2 986.6 0.2 958.4 66.3"/><path class="cls-1" d="M1031.7,75a5,5,0,1,0,5,5A5.08,5.08,0,0,0,1031.7,75Z" transform="translate(0 0)"/><polygon class="cls-1" points="1309.5 35.1 1284.5 10.1 1274.5 0.1 1274.5 14.2 1274.5 85.1 1284.5 75.1 1284.5 25.2 1309.5 50.2 1334.6 25.2 1334.6 85.1 1344.6 75.1 1344.6 14.2 1344.6 0.1 1334.6 10.1 1309.5 35.1"/></svg>