<svg id="Warstwa_1" data-name="Warstwa 1" xmlns="http://www.w3.org/2000/svg" viewBox="0 0 75.1 73.26"><defs><style>.cls-1{fill:#1b1b1b;fill-rule:evenodd;}</style></defs><path class="cls-1" d="M37.53,0A37.54,37.54,0,0,0,25.66,73.15c1.88.34,2.57-.82,2.57-1.81V65c-10.45,2.27-12.65-5-12.65-5-1.7-4.33-4.17-5.49-4.17-5.49-3.4-2.33.26-2.28.26-2.28,3.77.27,5.75,3.87,5.75,3.87,3.35,5.73,8.79,4.08,10.92,3.12a8.06,8.06,0,0,1,2.39-5c-8.34-1-17.1-4.17-17.1-18.55a14.48,14.48,0,0,1,3.86-10.07,13.52,13.52,0,0,1,.37-9.93s3.15-1,10.32,3.84a35.69,35.69,0,0,1,18.8,0c7.16-4.85,10.31-3.84,10.31-3.84a13.52,13.52,0,0,1,.37,9.93,14.44,14.44,0,0,1,3.86,10.07c0,14.42-8.78,17.59-17.14,18.52,1.35,1.16,2.55,3.45,2.55,7,0,5,0,9.07,0,10.3,0,1,.68,2.17,2.58,1.8A37.54,37.54,0,0,0,37.58.05Z" transform="translate(0 0)"/></svg>