<svg id="Warstwa_1" data-name="Warstwa 1" xmlns="http://www.w3.org/2000/svg" xmlns:xlink="http://www.w3.org/1999/xlink" viewBox="0 0 75.06 73.21"><defs><style>.cls-1{fill-rule:evenodd;fill:url(#Gradient_bez_nazwy_20);}</style><linearGradient id="Gradient_bez_nazwy_20" x1="260.28" y1="425.52" x2="334.91" y2="417.39" gradientUnits="userSpaceOnUse"><stop offset="0" stop-color="#e5252c"/><stop offset="1" stop-color="#e51036"/></linearGradient></defs><path class="cls-1" d="M297.64,384.34a37.54,37.54,0,0,0-11.87,73.15c1.88.34,2.57-.82,2.57-1.81s0-3.25,0-6.39c-10.45,2.27-12.65-5-12.65-5-1.7-4.33-4.17-5.49-4.17-5.49-3.4-2.33.26-2.28.26-2.28,3.77.27,5.75,3.87,5.75,3.87,3.35,5.73,8.79,4.08,10.92,3.12a8.08,8.08,0,0,1,2.39-5c-8.34-.95-17.1-4.17-17.1-18.55a14.49,14.49,0,0,1,3.86-10.07,13.54,13.54,0,0,1,.37-9.93s3.15-1,10.32,3.84a35.69,35.69,0,0,1,18.8,0c7.16-4.85,10.31-3.84,10.31-3.84a13.49,13.49,0,0,1,.37,9.93,14.45,14.45,0,0,1,3.86,10.07c0,14.42-8.78,17.59-17.14,18.52,1.35,1.16,2.55,3.45,2.55,6.95,0,5-.05,9.07-.05,10.3,0,1,.68,2.17,2.58,1.8a37.54,37.54,0,0,0-11.88-73.14Z" transform="translate(-260.11 -384.34)"/></svg>