<?xml version="1.0" encoding="utf-8"?>
<!-- Generator: Adobe Illustrator 25.4.1, SVG Export Plug-In . SVG Version: 6.00 Build 0)  -->
<svg version="1.1" id="Warstwa_1" xmlns="http://www.w3.org/2000/svg" xmlns:xlink="http://www.w3.org/1999/xlink" x="0px" y="0px"
	 viewBox="0 0 545.5 85" style="enable-background:new 0 0 545.5 85;" xml:space="preserve">
<style type="text/css">
	.st0{fill:url(#SVGID_1_);}
	.st1{fill:url(#SVGID_00000137100964679089988760000016853078975668166312_);}
	.st2{fill:url(#SVGID_00000082346781665369188380000002335144687765623738_);}
	.st3{fill:url(#SVGID_00000150095028566586950720000015517106718522773669_);}
	.st4{fill:url(#SVGID_00000034080512227389979600000006845376571677719936_);}
	.st5{fill:url(#SVGID_00000103982578777051160720000006411605431811220141_);}
</style>
<polygon points="0,0 0,0.1 0,0.1 "/>
<polygon points="0,85 0.1,84.9 0,84.9 "/>
<polygon points="70,0 70,0.1 70,0.1 "/>
<polygon points="60,85 60.1,84.9 60,84.9 "/>
<polygon points="100,85 110,85 110.1,84.9 100.1,84.9 "/>
<polygon points="110,0 100,0 100,0.1 110,0.1 "/>
<polygon points="145,0 135,0 135,0.1 145,0.1 "/>
<rect x="206.8" y="0" width="10" height="0"/>
<rect x="266.8" y="0" width="10" height="0"/>
<polygon points="276.8,85 276.8,84.9 276.7,84.9 "/>
<polygon points="206.8,85 206.9,84.9 206.8,84.9 "/>
<polygon points="421.6,85 421.6,84.9 421.6,84.9 "/>
<polygon points="462.4,85 462.4,84.9 462.4,84.9 "/>
<rect x="421.6" y="0" width="10" height="0.1"/>
<polygon points="537.6,85 537.7,84.9 537.6,84.9 "/>
<polygon points="496.8,85 496.9,84.9 496.8,84.9 "/>
<polygon points="537.6,0 537.6,0.1 537.7,0.1 "/>
<rect x="496.8" y="0" width="10" height="0"/>
<polygon points="70,14.2 70,0.1 70,0.1 60,10 35,35 10,10 0,0.1 0,0.1 0,14.2 0,84.9 0.1,84.9 10,75 10,25.2 35,50.2 60,25.2 
	60,84.9 60.1,84.9 70,75 "/>
<linearGradient id="SVGID_1_" gradientUnits="userSpaceOnUse" x1="-4.215" y1="46.231" x2="544.0143" y2="-13.465">
	<stop  offset="0" style="stop-color:#E5252C"/>
	<stop  offset="1" style="stop-color:#E51036"/>
</linearGradient>
<polygon class="st0" points="70,14.2 70,0.1 70,0.1 60,10 35,35 10,10 0,0.1 0,0.1 0,14.2 0,84.9 0.1,84.9 10,75 10,25.2 35,50.2 
	60,25.2 60,84.9 60.1,84.9 70,75 "/>
<polygon points="135,0.1 121.5,32.9 110,0.1 100,0.1 116,46 116.1,46 100.1,84.9 110.1,84.9 145,0.1 "/>
<linearGradient id="SVGID_00000023977294796774192070000012118325742750571144_" gradientUnits="userSpaceOnUse" x1="-3.3361" y1="54.3023" x2="544.8931" y2="-5.3937">
	<stop  offset="0" style="stop-color:#E5252C"/>
	<stop  offset="1" style="stop-color:#E51036"/>
</linearGradient>
<polygon style="fill:url(#SVGID_00000023977294796774192070000012118325742750571144_);" points="135,0.1 121.5,32.9 110,0.1 
	100,0.1 116,46 116.1,46 100.1,84.9 110.1,84.9 145,0.1 "/>
<polygon points="276.8,0.1 266.8,0.1 266.8,59.9 241.8,34.9 216.8,59.9 216.8,0.1 206.8,0.1 206.8,70.9 206.8,84.9 206.9,84.9 
	216.8,75 241.8,50 266.8,75 276.7,84.9 276.8,84.9 276.8,70.9 "/>
<linearGradient id="SVGID_00000114755742897729593150000002353134092781346192_" gradientUnits="userSpaceOnUse" x1="-1.7337" y1="69.0183" x2="546.4955" y2="9.3222">
	<stop  offset="0" style="stop-color:#E5252C"/>
	<stop  offset="1" style="stop-color:#E51036"/>
</linearGradient>
<polygon style="fill:url(#SVGID_00000114755742897729593150000002353134092781346192_);" points="276.8,0.1 266.8,0.1 266.8,59.9 
	241.8,34.9 216.8,59.9 216.8,0.1 206.8,0.1 206.8,70.9 206.8,84.9 206.9,84.9 216.8,75 241.8,50 266.8,75 276.7,84.9 276.8,84.9 
	276.8,70.9 "/>
<path d="M369.1,5.1c-6-3.2-12.7-5-20-5c-23.4,0-42.4,19-42.4,42.4s19,42.4,42.4,42.4c7.5,0,14.6-2,20.7-5.4
	c12.9-7.3,21.7-21.1,21.7-37C391.6,26.4,382.5,12.3,369.1,5.1z M359.2,73.3c-3.2,1-6.5,1.6-10,1.6c-17.8,0-32.4-14.5-32.4-32.4
	c0-17.8,14.5-32.4,32.4-32.4c3.1,0,6.2,0.5,9,1.3c13.5,3.9,23.3,16.4,23.3,31.1C381.6,56.9,372.2,69.1,359.2,73.3z"/>
<linearGradient id="SVGID_00000138545252729274694120000002681084020140423331_" gradientUnits="userSpaceOnUse" x1="-0.4743" y1="80.5846" x2="547.755" y2="20.8886">
	<stop  offset="0" style="stop-color:#E5252C"/>
	<stop  offset="1" style="stop-color:#E51036"/>
</linearGradient>
<path style="fill:url(#SVGID_00000138545252729274694120000002681084020140423331_);" d="M369.1,5.1c-6-3.2-12.7-5-20-5
	c-23.4,0-42.4,19-42.4,42.4s19,42.4,42.4,42.4c7.5,0,14.6-2,20.7-5.4c12.9-7.3,21.7-21.1,21.7-37C391.6,26.4,382.5,12.3,369.1,5.1z
	 M359.2,73.3c-3.2,1-6.5,1.6-10,1.6c-17.8,0-32.4-14.5-32.4-32.4c0-17.8,14.5-32.4,32.4-32.4c3.1,0,6.2,0.5,9,1.3
	c13.5,3.9,23.3,16.4,23.3,31.1C381.6,56.9,372.2,69.1,359.2,73.3z"/>
<path d="M446.4,48.1c12.3-1,22-11.3,22-23.9c0-13.2-10.8-24-24-24c0,0-7.1,0-12.8,0V0.1h-10v84.9h0.1l9.9-9.9V48.2
	c0.7,0,1.5,0,2.2,0l28.6,36.7h0.1l7.8-6.2L446.4,48.1z M431.6,38.2v-28c5.7,0,12.8,0,12.8,0c7.7,0,14,6.3,14,14c0,7.7-6.3,14-14,14
	C444.4,38.2,437.4,38.2,431.6,38.2z"/>
<linearGradient id="SVGID_00000155864184487543193910000003109606785638012034_" gradientUnits="userSpaceOnUse" x1="0.6122" y1="90.5623" x2="548.8414" y2="30.8662">
	<stop  offset="0" style="stop-color:#E5252C"/>
	<stop  offset="1" style="stop-color:#E51036"/>
</linearGradient>
<path style="fill:url(#SVGID_00000155864184487543193910000003109606785638012034_);" d="M446.4,48.1c12.3-1,22-11.3,22-23.9
	c0-13.2-10.8-24-24-24c0,0-7.1,0-12.8,0V0.1h-10v84.9h0.1l9.9-9.9V48.2c0.7,0,1.5,0,2.2,0l28.6,36.7h0.1l7.8-6.2L446.4,48.1z
	 M431.6,38.2v-28c5.7,0,12.8,0,12.8,0c7.7,0,14,6.3,14,14c0,7.7-6.3,14-14,14C444.4,38.2,437.4,38.2,431.6,38.2z"/>
<path d="M537.6,0.1L509,36.8c-0.7,0-1.5,0-2.2,0V13.7v-3.5V10V0.2V0.1h-10v84.9h0.1l9.9-9.9v-0.2v0v-3.5V48.2c0.7,0,1.5,0,2.2,0
	l28.6,36.7h0.1l7.8-6.1l-28.3-36.3l28.3-36.3L537.6,0.1L537.6,0.1z"/>
<linearGradient id="SVGID_00000156549851552922619130000017023005528418383012_" gradientUnits="userSpaceOnUse" x1="1.494" y1="98.6609" x2="549.7233" y2="38.9648">
	<stop  offset="0" style="stop-color:#E5252C"/>
	<stop  offset="1" style="stop-color:#E51036"/>
</linearGradient>
<path style="fill:url(#SVGID_00000156549851552922619130000017023005528418383012_);" d="M537.6,0.1L509,36.8c-0.7,0-1.5,0-2.2,0
	V13.7v-3.5V10V0.2V0.1h-10v84.9h0.1l9.9-9.9v-0.2v0v-3.5V48.2c0.7,0,1.5,0,2.2,0l28.6,36.7h0.1l7.8-6.1l-28.3-36.3l28.3-36.3
	L537.6,0.1L537.6,0.1z"/>
</svg>
