<svg id="Warstwa_1" data-name="Warstwa 1" xmlns="http://www.w3.org/2000/svg" viewBox="0 0 73 73.3"><defs><style>.cls-1{fill:#1b1b1b;}</style></defs><path class="cls-1" d="M36.5,0A36.63,36.63,0,0,0,0,33.7l19.6,8.1A10.73,10.73,0,0,1,25.4,40H26l8.7-12.6v-.2A13.8,13.8,0,1,1,48.5,41h-.3L35.8,49.9v.5A10.39,10.39,0,0,1,25.4,60.8a10.5,10.5,0,0,1-10.2-8.3l-14-5.8A36.61,36.61,0,1,0,36.5,0Z" transform="translate(0 0)"/><path class="cls-1" d="M22.9,55.5l-4.5-1.9A7.79,7.79,0,1,0,28.4,43a7.51,7.51,0,0,0-5.7-.1l4.6,1.9a5.78,5.78,0,0,1,3.1,7.5A5.55,5.55,0,0,1,22.9,55.5Z" transform="translate(0 0)"/><path class="cls-1" d="M57.8,27.2a9.2,9.2,0,1,0-9.2,9.2A9.18,9.18,0,0,0,57.8,27.2Zm-16.1,0a6.9,6.9,0,1,1,6.9,6.9A6.91,6.91,0,0,1,41.7,27.2Z" transform="translate(0 0)"/></svg>