<?xml version="1.0" encoding="utf-8"?>
<!-- Generator: Adobe Illustrator 25.4.1, SVG Export Plug-In . SVG Version: 6.00 Build 0)  -->
<svg version="1.1" id="Warstwa_1" xmlns="http://www.w3.org/2000/svg" xmlns:xlink="http://www.w3.org/1999/xlink" x="0px" y="0px"
	 viewBox="0 0 73.1 73.2" style="enable-background:new 0 0 73.1 73.2;" xml:space="preserve">
<style type="text/css">
	.st0{fill:url(#SVGID_1_);}
	.st1{fill:url(#SVGID_00000035532850398809934550000009221308720273538210_);}
	.st2{fill:url(#SVGID_00000129884164865273968140000010166305536312219299_);}
</style>
<g>
	<linearGradient id="SVGID_1_" gradientUnits="userSpaceOnUse" x1="0.5998" y1="40.5123" x2="72.8724" y2="32.6427">
		<stop  offset="0" style="stop-color:#E5252C"/>
		<stop  offset="1" style="stop-color:#E51036"/>
	</linearGradient>
	<path class="st0" d="M36.5,0C17.3,0,1.5,14.8,0,33.7l19.6,8.1c1.7-1.1,3.7-1.8,5.8-1.8c0.2,0,0.4,0,0.6,0l8.7-12.6
		c0-0.1,0-0.1,0-0.2c0-7.6,6.2-13.8,13.8-13.8c7.6,0,13.8,6.2,13.8,13.8c0,7.6-6.2,13.8-13.8,13.8c-0.1,0-0.2,0-0.3,0l-12.4,8.9
		c0,0.2,0,0.3,0,0.5c0,5.7-4.6,10.4-10.4,10.4c-5,0-9.2-3.6-10.2-8.3l-14-5.8c4.3,15.4,18.5,26.6,35.2,26.6
		c20.2,0,36.6-16.4,36.6-36.6C73.1,16.4,56.7,0,36.5,0z"/>
	
		<linearGradient id="SVGID_00000086651491694772826480000005581558707679807888_" gradientUnits="userSpaceOnUse" x1="18.1634" y1="51.1139" x2="33.1732" y2="49.4795">
		<stop  offset="0" style="stop-color:#E5252C"/>
		<stop  offset="1" style="stop-color:#E51036"/>
	</linearGradient>
	<path style="fill:url(#SVGID_00000086651491694772826480000005581558707679807888_);" d="M22.9,55.5l-4.5-1.9c0.8,1.7,2.2,3,4,3.8
		c4,1.6,8.5-0.2,10.2-4.2c0.8-1.9,0.8-4,0-6c-0.8-1.9-2.3-3.4-4.2-4.2c-1.9-0.8-3.9-0.8-5.7-0.1l4.6,1.9c2.9,1.2,4.3,4.6,3.1,7.5
		C29.2,55.4,25.9,56.8,22.9,55.5z"/>
	
		<linearGradient id="SVGID_00000115473355743141601980000007064559728582386106_" gradientUnits="userSpaceOnUse" x1="39.4122" y1="28.1658" x2="57.7024" y2="26.1742">
		<stop  offset="0" style="stop-color:#E5252C"/>
		<stop  offset="1" style="stop-color:#E51036"/>
	</linearGradient>
	<path style="fill:url(#SVGID_00000115473355743141601980000007064559728582386106_);" d="M57.8,27.2c0-5.1-4.1-9.2-9.2-9.2
		s-9.2,4.1-9.2,9.2s4.1,9.2,9.2,9.2S57.8,32.2,57.8,27.2z M41.7,27.2c0-3.8,3.1-6.9,6.9-6.9c3.8,0,6.9,3.1,6.9,6.9
		c0,3.8-3.1,6.9-6.9,6.9C44.8,34.1,41.7,31,41.7,27.2z"/>
</g>
</svg>
